# xmcd CD database file generated by OrangeCD 5.2
#
# Track frame offsets:
#	182
#	14720
#	28110
#	40780
#	53092
#	63665
#	79450
#	91000
#	102577
#	115465
#
# Disc length: 1693 seconds
#
# Revision: 2
# Processed by: cddbd v1.5.1PL0 Copyright (c) Steve Scherf et al.
# Submitted via: OrangeCD 5.2
#
DISCID=87069b0a
DTITLE=The Country Dance Kings - Country Line Dance Jubilee Volume 2
DYEAR=1993
DGENRE=Country
TTITLE0=Bubba Shot the Jukebox
TTITLE1=Papa Loves Mama
TTITLE2=I'm In A Hurry (And Don't Know Why)
TTITLE3=What Part Of No
TTITLE4=One More Payment
TTITLE5=A Jukebox With A Country Song
TTITLE6=Whatcha Gonna Do With A Cowboy
TTITLE7=I Want You Bad (And That Ain't Good)
TTITLE8=My Next Broken Heart
TTITLE9=Boom It Was Over
EXTD=
EXTT0=
EXTT1=
EXTT2=
EXTT3=
EXTT4=
EXTT5=
EXTT6=
EXTT7=
EXTT8=
EXTT9=
PLAYORDER=
